# xmcd
#
# Track frame offsets:
#	150
#	21968
#	31732
#	44403
#	60905
#	80360
#	93953
#	109268
#	127157
#	145671
#	158863
#
# Disc length: 2328 seconds
#
# Revision: 1
# Processed by: cddbd v1.5.2PL0 Copyright (c) Steve Scherf et al.
# Submitted via: audiograbber 1.83.01
#
DISCID=8709160b
DTITLE=Дефекты речи - Unplugged live 2006
DYEAR=2006
DGENRE=Blues
TTITLE0=Письмо в столицу
TTITLE1=Медью бряцнули
TTITLE2=Любовь-2
TTITLE3=Мужчина и женщина
TTITLE4=Романс
TTITLE5=Отражения-2
TTITLE6=Робин Good
TTITLE7=Последний февраль
TTITLE8=Черновики ("Небо ставит созвездья капканами...")
TTITLE9=Вавилонская башня или песенка о большом человеческом непонимании
TTITLE10=Сестры
EXTD=
EXTT0=
EXTT1=
EXTT2=
EXTT3=
EXTT4=
EXTT5=
EXTT6=
EXTT7=
EXTT8=
EXTT9=
EXTT10=
PLAYORDER=
